{
    "asset" : {
        "generator" : "Khronos glTF Blender I/O v1.2.75",
        "version" : "2.0"
    },
    "scene" : 0,
    "scenes" : [
        {
            "name" : "Scene",
            "nodes" : [
                0,
                1,
                2
            ]
        }
    ],
    "nodes" : [
        {
            "name" : "Light",
            "rotation" : [
                0.16907575726509094,
                0.7558803558349609,
                -0.27217137813568115,
                0.570947527885437
            ],
            "translation" : [
                4.076245307922363,
                5.903861999511719,
                -1.0054539442062378
            ]
        },
        {
            "name" : "Camera",
            "rotation" : [
                0.483536034822464,
                0.33687159419059753,
                -0.20870360732078552,
                0.7804827094078064
            ],
            "translation" : [
                7.358891487121582,
                4.958309173583984,
                6.925790786743164
            ]
        },
        {
            "mesh" : 0,
            "name" : "cwtshaftSTL",
            "scale" : [
                0.04166699945926666,
                0.0416666679084301,
                0.0416666679084301
            ]
        }
    ],
    "meshes" : [
        {
            "name" : "cwtshaftSTL",
            "primitives" : [
                {
                    "attributes" : {
                        "POSITION" : 0,
                        "NORMAL" : 1
                    },
                    "indices" : 2
                }
            ]
        }
    ],
    "accessors" : [
        {
            "bufferView" : 0,
            "componentType" : 5126,
            "count" : 34100,
            "max" : [
                1.0835120178853686e-07,
                13.11404800415039,
                7.299727439880371
            ],
            "min" : [
                -62.400001525878906,
                -13.11404800415039,
                -15.863759994506836
            ],
            "type" : "VEC3"
        },
        {
            "bufferView" : 1,
            "componentType" : 5126,
            "count" : 34100,
            "type" : "VEC3"
        },
        {
            "bufferView" : 2,
            "componentType" : 5123,
            "count" : 36174,
            "type" : "SCALAR"
        }
    ],
    "bufferViews" : [
        {
            "buffer" : 0,
            "byteLength" : 409200,
            "byteOffset" : 0
        },
        {
            "buffer" : 0,
            "byteLength" : 409200,
            "byteOffset" : 409200
        },
        {
            "buffer" : 0,
            "byteLength" : 72348,
            "byteOffset" : 818400
        }
    ],
    "buffers" : [
        {
            "byteLength" : 890748,
            "uri" : "24to1scale.bin"
        }
    ]
}
